<svg width="352" height="400" viewBox="0 0 352 400" fill="none" xmlns="http://www.w3.org/2000/svg">
<rect width="167.68" height="368.599" rx="22.9901" transform="matrix(0.987188 0.159564 -0.141592 0.989925 184.305 8.09375)" fill="#1C1B2D"/>
<rect width="162.949" height="364.138" rx="21.0129" transform="matrix(0.987188 0.159564 -0.141592 0.989925 186.07 10.6406)" fill="#23213B"/>
<rect width="1.05128" height="26.209" rx="0.494123" transform="matrix(0.987188 0.159564 -0.141592 0.989925 170.125 96.1406)" fill="#1C1B2D"/>
<rect width="1.05128" height="26.209" rx="0.494123" transform="matrix(0.987188 0.159564 -0.141592 0.989925 165.461 128.719)" fill="#1C1B2D"/>
<rect width="1.57693" height="12.8257" rx="0.494123" transform="matrix(0.987188 0.159564 -0.141592 0.989925 173.594 71.8594)" fill="#1C1B2D"/>
<rect width="1.57693" height="40.7076" rx="0.494123" transform="matrix(0.987188 0.159564 -0.141592 0.989925 334.688 140.82)" fill="#1C1B2D"/>
<rect width="154.013" height="354.1" rx="17.3298" transform="matrix(0.987188 0.159564 -0.141592 0.989925 189.5 16.2578)" fill="#353447"/>
<rect width="45.2052" height="13.941" rx="6.97048" transform="matrix(0.987188 0.159564 -0.141592 0.989925 242.922 28.8438)" fill="#1C1B2D"/>
<rect width="167.519" height="368.914" rx="22.9901" transform="matrix(0.995599 -0.0937118 0.0830056 0.996549 2.53906 16.0547)" fill="#1C1B2D"/>
<rect width="162.792" height="364.449" rx="21.0129" transform="matrix(0.995599 -0.0937118 0.0830056 0.996549 4.8125 18.0781)" fill="#23213B"/>
<rect width="1.05027" height="26.2314" rx="0.494123" transform="matrix(0.995599 -0.0937118 0.0830056 0.996549 8.39844 105.203)" fill="#1C1B2D"/>
<rect width="1.05027" height="26.2314" rx="0.494123" transform="matrix(0.995599 -0.0937118 0.0830056 0.996549 11.1406 138.008)" fill="#1C1B2D"/>
<rect width="1.57541" height="12.8366" rx="0.494123" transform="matrix(0.995599 -0.0937118 0.0830056 0.996549 6.35938 80.7266)" fill="#1C1B2D"/>
<rect width="1.57541" height="40.7424" rx="0.494123" transform="matrix(0.995599 -0.0937118 0.0830056 0.996549 178.227 107.148)" fill="#1C1B2D"/>
<rect width="153.865" height="354.403" rx="17.3298" transform="matrix(0.995599 -0.0937118 0.0830056 0.996549 9.42969 22.6953)" fill="#353447"/>
<rect width="45.1617" height="13.9529" rx="6.97643" transform="matrix(0.995599 -0.0937118 0.0830056 0.996549 64.125 21.4609)" fill="#1C1B2D"/>
</svg>
